<svg width="170px" height="41px" xmlns="http://www.w3.org/2000/svg" viewBox="0 0 170 41" enable-background="new 0 0 170 41"><g fill="#fff"><path d="m20.1 41c-11.3 0-20.6-9.4-20.4-20.7.2-10.6 8.9-20 20.6-19.9 11.2.1 20.3 9 20.2 20.4-.1 11.8-9.8 20.3-20.4 20.2m12.6-28v-2.1c-1.1.3-2 .5-2.9.7-.2-.7.4-1.5-.5-2.1-3.1 1.2-6.2 2.4-9.3 3.6-1.7-.6-3.2-1.3-4.8-1.9-1.6-.6-3-1.3-4.8-1.7 0 .9-.1 1.5-.1 2.2-1 .1-1.9-.8-3-.4v1.8c-.9.2-1.7-.6-2.7 0 .9 5.8 1.7 11.6 2.6 17.5.7-.1 1.3-.2 1.8-.2.2.3.4.6.6.9.7-.2 1.3-.3 1.9-.4.2.3.4.6.6 1 2.7-1.1 5.3-2.2 7.9-3.3 2.8 1 5.3 2.4 8.1 3.2.2-.5.4-.8.5-1.1.6.2 1.2.3 1.8.5.2-.3.4-.6.6-.9.6.1 1.2.2 1.9.3.2-1.3.4-2.5.6-3.6.7-4.3 1.3-8.7 1.9-13 .1-.4 0-.8 0-1.3-.9.1-1.7.2-2.7.3"/><path d="m116.5 32.5h-5.3c-.1-3.1-.2-6.2-.3-9.5-.4.3-.7.5-.9.7-1 1-2 2-3 3-.3.3-.6.5-1.1.9-1.6-1.5-3.1-3-4.8-4.7-.6 3.2-.2 6.4-.5 9.6-1.7.2-3.4.1-5.3.1-.1-8 .4-15.9.3-23.7.9-.4 1.2.3 1.5.7 1.9 2.5 3.9 4.9 5.8 7.4.9 1.2 1.8 2.3 2.9 3.6.4-.4.7-.8 1-1.1 2.6-3.3 5.2-6.6 7.8-9.8.3-.4.6-1.1 1.5-.8.2 7.7.3 15.6.4 23.6"/><path d="m132.9 27.6c-1.7-1.6-3.1-3.1-4.8-4.7-.5 1.8-.2 3.4-.3 4.9-.1 1.5-.1 3.1-.1 4.7h-5.5c.1-7.9.3-15.9.4-23.7.8-.3 1 .2 1.3.5 1.1 1.4 2.3 2.9 3.4 4.3 1.5 2 3.1 3.9 4.6 5.9.2.3.5.6.8.9.3-.4.6-.7.9-1 2.6-3.2 5.1-6.5 7.7-9.7.4-.5.6-1.1 1.6-1 0 .5.1 1 .1 1.5.1 6.1.1 12.2.1 18.3 0 1.3 0 2.6 0 3.9h-5.2c-.1-3.1-.2-6.1-.3-9.6-1.6 1.7-3 3.3-4.7 4.8"/><path d="m71.4 8.8h5.7v1.6c0 4.6 0 9.1 0 13.7 0 .5 0 1 0 1.4.2 1.3.8 2.2 2.1 2.5.9.2 1.8.2 2.7.1 1.4-.2 2.2-1.2 2.3-2.6.1-.6.1-1.2.1-1.7 0-4.4 0-8.8 0-13.1v-1.7c1.1-.3 4.1-.4 5.7-.1 0 .4.1.8.1 1.2 0 4.9 0 9.7 0 14.6 0 .7-.1 1.4-.2 2.2-.3 2.5-1.7 4.1-4.1 4.9-2.1.7-4.2.9-6.4.7-1.1-.1-2.3-.2-3.4-.5-3-.9-4.6-3-4.7-6-.1-5.5 0-11 0-16.5 0-.2.1-.4.1-.7"/><path d="m157.8 8.7c.4 0 .7 0 .9 0 .3 0 .6 0 1 .1 3.3 7.9 6.7 15.8 10.1 23.8h-6.1c-.4-.8-.7-1.5-1.1-2.3h-8.1c-.4.8-.8 1.5-1.2 2.3h-5.7c3.4-8.1 6.8-16 10.2-23.9m.9 11.9c-.1 0-.2 0-.3 0-.9 2-1.6 4-2.4 6.2 1.8 0 3.3.1 5.1-.1-.9-2.2-1.7-4.1-2.4-6.1"/><path d="m65.6 10.2c-.8 1.5-1.5 2.8-2.2 4.1-.6-.3-1.1-.6-1.6-.8-.6-.3-1.3-.5-1.9-.7-1.6-.3-2.4.2-3 1.7 0 .9.7 1.3 1.3 1.8 1.6 1.2 3.3 2.4 4.9 3.7 2.6 2.1 3.4 4.8 2.4 8.5-.5 1.9-1.8 3.2-3.6 3.9-3.5 1.4-8 1-11.1-2.3.6-.8 1.2-1.7 1.8-2.6.2-.3.4-.5.7-.9.6.3 1.1.6 1.6.9.9.5 1.9.9 3 .8.6-.1 1.1-.3 1.6-.6 1.1-.7 1.3-1.7.5-2.7-.5-.6-1.1-1.2-1.8-1.7-1.3-1-2.6-2-3.9-3-.3-.2-.6-.5-.9-.7-2.2-1.7-2.8-4-2.1-6.6.6-2.4 2.3-3.8 4.7-4.5 3.5-1 6.5-.2 9.6 1.7"/><path d="m17.9 27.7c-1.6.6-3 1.2-4.5 1.8-.4-1.1-1.4-16.3-1.1-17.7 2.6 1 5.1 2 7.7 3 2.6-1 5.2-1.9 8-2.9-.4 6-.7 11.8-1.1 17.8-1.6-.7-3-1.3-4.6-1.9.4-.4.7-.8 1-1.1 1.6-1.9 1.8-4.4.5-6.5-1.7-2.9-5.5-3-7.5-.3-1.5 2.1-1.2 5 .6 6.9.3.3.6.6 1 .9"/><path d="m16.9 23.2c0-.3 0-.5.1-.7.3-1.9 1.7-3.2 3.3-3.1 1.6.1 3 1.9 2.9 3.8 0 .4-.1.8-.2 1.1-.4 1.4-1.6 2.3-2.8 2.3-1.3 0-2.4-.9-2.8-2.3-.4-.4-.4-.8-.5-1.1"/><path d="m9.3 13.4c.4.1.7.2 1.2.3.3 5.1.7 10.2 1 15.4-.3.1-.5.1-.7.1-.3-1.1-1.6-13.8-1.5-15.8"/><path d="m29.1 28.9c-.1 0-.3-.1-.5-.2.3-5 .6-10 1-15.1.5-.2.8-.3 1.2-.4.3.5-1.2 14.7-1.7 15.7"/><path d="m31.8 28.8c-.3 0-.4-.1-.8-.1.5-4.6 1-9.2 1.4-13.9.4-.1.8-.2 1.1-.3.1.1.2.2.2.3-.6 4.4-1.2 8.8-1.7 13.1 0 .2-.1.5-.2.9"/><path d="m6.4 14.7c.5.1.8.1 1.2.1.5 4.7.9 9.3 1.4 13.9-.1 0-.3.1-.4.1-.1-.3-.3-.6-.4-1-.6-4.2-1.1-8.6-1.8-13.1"/></g></svg>