<svg width="69px" height="27px" viewBox="0 0 69 27" xmlns="http://www.w3.org/2000/svg"><g fill="#fff" fill-rule="evenodd"><path d="m.999 26.24h6.695v-14.178l6.272 9.641h.141l6.307-9.712v14.249h6.8v-24.811h-7.223l-5.884 9.606-5.885-9.606h-7.223v24.811"/><path d="m41.2 10.54c0 1.949-1.48 3.225-3.912 3.225h-3.241v-6.557h3.206c2.466 0 3.946 1.134 3.946 3.261v.071m5.9-4.483c-1.528-2.962-4.847-4.626-9.317-4.626h-10.571v24.811h6.836v-7.089h3.383c3.01 0 5.621-.749 7.5-2.2-.22-.969-.34-1.986-.34-3.046v-.071c0-2.945.917-5.63 2.509-7.78"/><path d="m68.24 21.14l-5.144-3.686c-1.48 1.808-2.995 3.01-5.567 3.01-3.453 0-5.884-2.906-5.884-6.628 0-3.686 2.431-6.628 5.884-6.628 2.361 0 3.982 1.134 5.391 2.906l5.144-4.01c-2.184-3.049-5.426-5.175-10.465-5.175-7.47 0-13 5.671-13 12.902 0 7.479 5.673 12.902 12.72 12.902 5.462 0 10.923-5.601 10.923-5.601"/></g></svg>