<?xml version="1.0" encoding="UTF-8" standalone="no"?>
<svg width="175px" height="29px" viewBox="0 0 175 29" version="1.1" xmlns="http://www.w3.org/2000/svg" xmlns:xlink="http://www.w3.org/1999/xlink" xmlns:sketch="http://www.bohemiancoding.com/sketch/ns">
    <!-- Generator: Sketch 3.1 (8751) - http://www.bohemiancoding.com/sketch -->
    <title>Slice 2</title>
    <desc>Created with Sketch.</desc>
    <defs></defs>
    <g id="Page-1" stroke="none" stroke-width="1" fill="none" fill-rule="evenodd" sketch:type="MSPage">
        <path d="M13.085915,28.9694494 C15.0590082,28.9694494 15.2782408,28.8577649 16.5209912,28.8577649 C17.7637416,28.8577649 17.9829741,28.9694494 19.9560674,28.9694494 C27.4112724,28.9694494 32.9297067,21.4482557 32.9297067,12.9582482 C32.9297067,3.94748672 27.0824235,0.298904834 22.770417,0.298904834 C19.5176022,0.298904834 18.1652355,1.1177045 16.5942849,1.1177045 C15.2782408,1.1177045 13.3784413,0.298904834 10.2715654,0.298904834 C5.95955884,0.298904834 0.112275621,3.94748672 0.112275621,12.9582482 C0.112275621,21.4482557 5.63070996,28.9694494 13.085915,28.9694494 L13.085915,28.9694494 Z M13.5970253,26.4747208 C8.04226836,26.4377129 3.80290696,21.633956 3.03559292,15.3042844 C2.9629478,14.6341771 2.88965407,13.9640699 2.88965407,13.1816173 C2.92597663,5.84678474 7.6038032,2.94232587 11.1854669,2.86764923 C14.1094328,2.79297258 14.6568656,3.46374067 16.5209912,3.46374067 C18.1652355,3.46374067 18.9331982,2.79297258 21.8565155,2.86764923 C25.4381792,2.94232587 30.1160057,5.84678474 30.1160057,13.1816173 C30.1160057,13.9640699 30.0790346,14.6341771 30.0063894,15.3042844 C29.2384268,21.633956 24.999714,26.4377129 19.4443085,26.4747208 L16.5209912,26.4747208 L13.5970253,26.4747208 Z M14.1457553,24.2780379 C15.4248283,24.3150458 15.6803834,24.2403692 16.5209912,24.2403692 C17.361599,24.2403692 17.6171541,24.3150458 18.8968756,24.2780379 C23.354821,24.1286846 26.7905458,20.2567337 27.4112724,15.2296077 C27.4845661,14.7088538 27.4845661,14.0757544 27.4845661,13.479663 C27.4112724,7.70841401 23.5740536,5.2506933 20.6137651,5.13900876 C18.3851167,5.06433211 17.6904478,5.51173112 16.5209912,5.51173112 C15.4248283,5.51173112 14.6568656,5.06433211 12.4275686,5.13900876 C9.46792876,5.2506933 5.59373879,7.70841401 5.55741623,13.479663 C5.55741623,14.0757544 5.55741623,14.7088538 5.63070996,15.2296077 C6.25143653,20.2567337 9.65019017,24.1286846 14.1457553,24.2780379 L14.1457553,24.2780379 Z M16.5209912,21.8949939 C15.899616,21.8949939 15.6440609,21.8949939 14.6568656,21.8203172 C11.441022,21.633956 8.84655358,18.7671659 8.44441097,15.0809153 C8.40808841,14.671185 8.40808841,14.2244469 8.40808841,13.8893933 C8.48138215,9.60771202 11.258112,7.78309065 13.5243801,7.59672947 C15.0959794,7.48504493 15.7173546,7.7454219 16.5209912,7.7454219 C17.3252764,7.7454219 17.9466516,7.48504493 19.5176022,7.59672947 C21.7838704,7.78309065 24.5612488,9.60771202 24.6338939,13.8893933 C24.6338939,14.2244469 24.6338939,14.671185 24.5975714,15.0809153 C24.1954288,18.6924893 21.6009604,21.633956 18.3851167,21.8203172 C17.3979215,21.8949939 17.1423664,21.8949939 16.5209912,21.8949939 L16.5209912,21.8949939 Z M16.5209912,19.7353189 C19.5176022,19.7353189 21.8934867,17.5756439 21.8934867,14.5595005 C21.8934867,11.5063492 19.7005122,9.68172781 16.5209912,9.68172781 C13.3784413,9.68172781 11.1121731,11.5063492 11.1121731,14.5595005 C11.1121731,17.6503205 13.5243801,19.7353189 16.5209912,19.7353189 L16.5209912,19.7353189 Z M16.5209912,17.4639594 C15.0590082,17.4639594 13.8895516,16.1977607 13.8895516,14.7088538 C13.8895516,13.1816173 15.0590082,12.027764 16.5209912,12.027764 C17.9829741,12.027764 19.1524308,13.1816173 19.1524308,14.7088538 C19.1524308,16.1977607 17.9829741,17.4639594 16.5209912,17.4639594 L16.5209912,17.4639594 Z" id="Fill-1" fill="#88C657" sketch:type="MSShapeGroup"></path>
        <path d="M47.5852751,26.1023289 C48.681438,26.1023289 50.2530373,25.8789598 50.2530373,25.8789598 L50.2530373,24.0173305 C50.2530373,24.0173305 48.6451155,24.2406996 47.6948914,24.2406996 C45.3559781,24.2406996 44.222844,23.19787 44.222844,20.3680878 L44.222844,8.86259772 L50.2530373,8.86259772 L50.2530373,7.03797635 L44.222844,7.03797635 L44.222844,2.16020367 L41.9572245,2.16020367 L41.9572245,7.03797635 L38.8146746,7.03797635 L38.8146746,8.86259772 L41.9572245,8.86259772 L41.9572245,20.2934111 C41.9572245,24.7991223 44.1865215,26.1023289 47.5852751,26.1023289" id="Fill-3" fill="#FFFFFF" sketch:type="MSShapeGroup"></path>
        <path d="M58.3242988,26.1023289 C62.3444277,26.1023289 64.0619658,23.8309694 64.6833409,22.1180325 L64.7566347,22.1180325 C64.7566347,24.3153763 65.5602713,26.1023289 68.4109435,26.1023289 C69.5071064,26.1023289 70.1654527,25.9159677 70.1654527,25.9159677 L70.1654527,24.0920072 C70.1654527,24.0920072 69.5071064,24.2406996 68.7397923,24.2406996 C67.4243968,24.2406996 66.9859317,23.3095546 66.9859317,22.1557013 L66.9859317,13.3683089 C66.9859317,7.85743687 64.0619658,6.5542303 60.1884244,6.5542303 C55.6202141,6.5542303 53.0250971,8.564552 52.5503093,11.655372 L54.6330189,12.0274336 C55.2180715,9.34634377 57.1918134,8.34118292 59.8958981,8.34118292 C62.4540439,8.34118292 64.7566347,9.0489589 64.7566347,13.1072711 L64.7566347,14.4104776 L61.2112936,14.4104776 C55.1447778,14.4104776 51.9659053,16.6818372 51.9659053,20.5167802 C51.9659053,23.7939615 54.4507575,26.1023289 58.3242988,26.1023289 M58.7997352,24.3153763 C56.1682956,24.3153763 54.3774637,22.937493 54.3774637,20.6291256 C54.3774637,17.3149365 57.4473685,16.1604224 61.9059625,16.1604224 L64.7566347,16.1604224 L64.7566347,17.7246668 C64.7566347,21.4849332 62.4177214,24.3153763 58.7997352,24.3153763" id="Fill-5" fill="#FFFFFF" sketch:type="MSShapeGroup"></path>
        <path d="M77.4673895,26.1023289 C79.0389888,26.1023289 80.0255354,25.8789598 80.0255354,25.8789598 L80.0255354,24.0173305 C80.0255354,24.0173305 78.8560787,24.2406996 77.7235933,24.2406996 C75.7135289,24.2406996 74.9092437,23.0115088 74.9092437,20.2934111 L74.9092437,0.48493559 L72.6436241,0.48493559 L72.6436241,20.2193954 C72.6436241,24.649769 74.6167173,26.1023289 77.4673895,26.1023289" id="Fill-7" fill="#FFFFFF" sketch:type="MSShapeGroup"></path>
        <path d="M88.2387144,26.1023289 C92.2588432,26.1023289 95.1095154,24.1290151 96.3152946,20.554449 L94.0859976,20.1077108 C93.2090673,23.19787 90.5776277,24.2030309 88.6771795,24.2030309 C85.2421033,24.2030309 82.9395126,21.7083023 82.90319,16.5701526 L96.4982046,16.5701526 L96.4982046,16.1234145 C96.4982046,11.0969494 94.1592913,6.5542303 88.640857,6.5542303 C83.8170916,6.5542303 80.3813667,10.4268421 80.3813667,16.235099 C80.3813667,21.3362407 82.8298963,26.1023289 88.2387144,26.1023289 L88.2387144,26.1023289 Z M83.0128063,14.8572158 C83.2320389,10.3521655 85.9361236,8.34118292 88.6038858,8.34118292 C91.7834069,8.34118292 93.9030876,10.9475961 93.9763813,14.8572158 L83.0128063,14.8572158 Z" id="Fill-9" fill="#FFFFFF" sketch:type="MSShapeGroup"></path>
        <path d="M99.9719384,25.767077 L102.237558,25.767077 L102.237558,14.7083251 C102.237558,12.1395807 104.101683,8.49033795 107.865609,8.49033795 C109.802379,8.49033795 111.666505,9.83055242 111.666505,13.1817494 L111.666505,25.767077 L113.932124,25.767077 L113.932124,13.3681106 C113.932124,8.37865341 111.008807,6.55403204 108.194457,6.55403204 C104.832675,6.55403204 102.786288,9.16044518 102.164264,10.6870208 L102.091619,10.6870208 L102.091619,7.03843894 L99.9719384,7.03843894 L99.9719384,25.767077 Z" id="Fill-11" fill="#FFFFFF" sketch:type="MSShapeGroup"></path>
        <path d="M125.153395,26.1023289 C126.249558,26.1023289 127.821157,25.8789598 127.821157,25.8789598 L127.821157,24.0173305 C127.821157,24.0173305 126.213235,24.2406996 125.263011,24.2406996 C122.924098,24.2406996 121.790964,23.19787 121.790964,20.3680878 L121.790964,8.86259772 L127.821157,8.86259772 L127.821157,7.03797635 L121.790964,7.03797635 L121.790964,2.16020367 L119.525344,2.16020367 L119.525344,7.03797635 L116.382794,7.03797635 L116.382794,8.86259772 L119.525344,8.86259772 L119.525344,20.2934111 C119.525344,24.7991223 121.754641,26.1023289 125.153395,26.1023289" id="Fill-13" fill="#FFFFFF" sketch:type="MSShapeGroup"></path>
        <path d="M136.62328,26.1394029 C139.94874,26.1394029 141.922482,23.5329897 142.470564,22.1927752 L142.543857,22.1927752 C142.543857,24.3147815 143.311171,26.102395 146.161844,26.102395 C147.221035,26.102395 147.952675,25.9160338 147.952675,25.9160338 L147.952675,24.0914124 C147.952675,24.0914124 147.294978,24.2407657 146.490692,24.2407657 C145.174648,24.2407657 144.736183,23.3096206 144.736183,22.1557674 L144.736183,7.03804243 L142.506886,7.03804243 L142.506886,18.0597865 C142.506886,20.6285308 140.643409,24.1660891 136.952129,24.1660891 C134.979036,24.1660891 133.11491,23.0115749 133.11491,19.5486934 L133.11491,7.03804243 L130.885613,7.03804243 L130.885613,19.4000009 C130.885613,24.4641348 133.699963,26.1394029 136.62328,26.1394029" id="Fill-15" fill="#FFFFFF" sketch:type="MSShapeGroup"></path>
        <path d="M151.166508,25.767077 L153.432776,25.767077 L153.432776,14.7083251 C153.432776,11.9902274 155.040698,8.49033795 158.695007,8.49033795 C160.522161,8.49033795 162.130083,9.90522906 162.130083,13.1817494 L162.130083,25.767077 L164.395703,25.767077 L164.395703,14.6713172 C164.395703,11.9532195 166.003625,8.49033795 169.658582,8.49033795 C171.485736,8.49033795 173.093658,9.90522906 173.093658,13.1817494 L173.093658,25.767077 L175.359278,25.767077 L175.359278,13.3681106 C175.359278,8.37865341 172.801132,6.55403204 169.987431,6.55403204 C166.734616,6.55403204 164.651907,9.34680637 164.103825,10.9480587 L164.030531,10.9480587 C163.372185,7.78256197 161.253153,6.55403204 159.023856,6.55403204 C155.771041,6.55403204 153.980858,9.16044518 153.358834,10.6870208 L153.286189,10.6870208 L153.286189,7.03843894 L151.166508,7.03843894 L151.166508,25.767077 Z" id="Fill-17" fill="#FFFFFF" sketch:type="MSShapeGroup"></path>
    </g>
</svg>