<svg width="54px" height="27px" viewBox="0 0 54 27" xmlns="http://www.w3.org/2000/svg"><g fill="#fff" fill-rule="evenodd"><path d="m29.378 1.419h3.077v-.719h-10.132v.719h3.077v23.774h-3.077v.719h10.132v-.719h-3.077"/><path d="m20.425 7.942h-.762c0 0-.811-7.174-7.494-7.174-6.182 0-6.613 5.968-6.613 10.834 0 7.758.791 14.1 6.974 14.1 6.643 0 7.735-7.155 7.735-7.155h.721v7.402h-.481l-1.443-1.522c0 0-2.735 2.056-6.573 2.056-6.658 0-11.632-5.894-11.632-12.83 0-7.375 4.609-13.447 11.11-13.447 3.918 0 6.05 2.221 6.05 2.221l1.764-1.768h.521"/><path d="m53.651 13.451c0-5.706-4.104-13.01-10.576-13.01-6.471 0-10.575 7.301-10.575 13.01 0 5.706 4.104 13.05 10.575 13.05 6.472 0 10.576-7.342 10.576-13.05m-16.586 0c0-5.993-.347-12.458 6.01-12.458 6.358 0 6.01 6.465 6.01 12.458 0 5.993.346 12.359-6.01 12.359-6.357 0-6.01-6.366-6.01-12.359"/></g></svg>